<svg xmlns="http://www.w3.org/2000/svg" xmlns:xlink="http://www.w3.org/1999/xlink" id="Footer" width="183" height="50" viewBox="0 0 183 50">  
  <g id="Footer_Logo" data-name="Footer Logo" transform="">
    <g id="Group_1" data-name="Group 1" clip-path="url(#clip-path)">
      <path id="Path_1" data-name="Path 1" d="M157.4,0a24.991,24.991,0,0,0-20.636,10.9,12.973,12.973,0,0,0-2.312-3.686,13.576,13.576,0,0,0-9.565-4.334A14.893,14.893,0,0,0,117.473,4.3L90.544,2.443l-.179,3.238a13.626,13.626,0,0,0-9.009-2.844,14.133,14.133,0,0,0-7.7,2.016,11.828,11.828,0,0,0-4.5,5.355,16.831,16.831,0,0,0-1.06,3.406L65.139,3.83,50.451,5.084l-.116.953L25.152,3.711,24.8,8.258l-.117-.118a13.575,13.575,0,0,0-9.8-3.778A14.163,14.163,0,0,0,4.983,8.1,14.137,14.137,0,0,0,.81,18.718,14.039,14.039,0,0,0,3,26.632H0v7.156C0,39.926,2.661,43.5,4.893,45.409a15.716,15.716,0,0,0,10.273,3.546,15.024,15.024,0,0,0,7.487-1.841l26.422,2.329.63-.689,26.188-2.236a15.564,15.564,0,0,0,5.462.911,14.91,14.91,0,0,0,7.1-1.579l29.42,1.634.686-1.6c1.137.3,2.826,1.467,4.057,1.538.355.02.7.03,1.051.03a13.67,13.67,0,0,0,9.428-3.415,13.2,13.2,0,0,0,3.472-5.234A25,25,0,1,0,157.4,0" transform="translate(0 0)"/>
      <path id="Path_2" data-name="Path 2" d="M412.327,51.247c-3.3.2-3.219,3.023-3.084,5.3l.17,2.857c.134,2.258.39,5.075,3.688,4.879s3.235-2.758,3.085-5.281l-.17-2.857c-.15-2.54-.391-5.092-3.689-4.9m.622,10.477c-.741.044-.782-.644-.857-1.914l-.238-4c-.076-1.27-.116-1.958.625-2s.782.644.857,1.914l.238,4c.076,1.27.116,1.958-.624,2" transform="translate(-257.215 -32.207)" fill="#e4002b"/>
      <path id="Path_3" data-name="Path 3" d="M157.2,60.126l-.709,11.882,3.658-.312-2.712-11.59Z" transform="translate(-98.367 -37.781)" fill="#e4002b"/>
      <path id="Path_4" data-name="Path 4" d="M157.4,0a24.991,24.991,0,0,0-20.636,10.9,12.973,12.973,0,0,0-2.312-3.686,13.576,13.576,0,0,0-9.565-4.334A14.893,14.893,0,0,0,117.473,4.3L90.544,2.443l-.179,3.238a13.626,13.626,0,0,0-9.009-2.844,14.133,14.133,0,0,0-7.7,2.016,11.828,11.828,0,0,0-4.5,5.355,16.831,16.831,0,0,0-1.06,3.406L65.139,3.83,50.61,3.781l-.276,2.256L25.152,3.711,24.8,8.258l-.117-.118a13.575,13.575,0,0,0-9.8-3.778A14.163,14.163,0,0,0,4.983,8.1,14.137,14.137,0,0,0,.81,18.718,14.039,14.039,0,0,0,3,26.632H0v7.156C0,39.926,2.661,43.5,4.893,45.409a15.716,15.716,0,0,0,10.273,3.546,15.024,15.024,0,0,0,7.487-1.841L49.069,50l.637-1.247,26.188-2.236a15.564,15.564,0,0,0,5.462.911,14.91,14.91,0,0,0,7.1-1.579L117.5,48.728l1.551-1.872a17.765,17.765,0,0,0,3.562.565c.355.02.7.03,1.051.03a13.671,13.671,0,0,0,9.428-3.415,13.2,13.2,0,0,0,3.472-5.235A25,25,0,1,0,157.4,0M15.1,44.837c-5.294,0-10.491-2.956-10.491-10.491v-2.48h6.581v2c0,3.147,1.383,4.721,3.482,4.721,1.859,0,2.813-1.288,2.813-3.148,0-2.1-1.192-3.385-4.1-5.388l-3.147-2.146c-3.576-2.432-4.816-5.1-4.816-8.632,0-6.39,4.149-9.68,9.395-9.68,4.959,0,9.3,2.956,9.3,10.538v1.383H17.822v-.906c0-3.291-1.192-4.769-3.195-4.769a2.522,2.522,0,0,0-2.67,2.813c0,1.144.429,2.289,3.719,4.435l3.2,2.1c5.484,3.624,5.723,8.154,5.723,9.776,0,6.295-3.672,9.871-9.49,9.871m32.95-30.255L45.558,41.6l-.272,3.471-5.936-.548L34.573,27.8l-.237-.022L33.164,40.456l-.273,3.471-6.648-.614.368-3.462,2.5-27.019.273-3.47,5.888.544L40.04,26.676l.238.022,1.175-12.726.273-3.47,6.7.618Zm16.115,28.8-.8-3.234-5.7.487-.2,3.319-7.127.608L54.568,9.978,61.7,9.369l10.075,33.36Zm26.28-20.716H83.3V20.278c0-3.434,0-5.294-2-5.294s-2,1.86-2,5.294V31.1c0,3.433,0,5.293,2,5.293s2-1.86,2-5.293V28.481h7.153v1c0,6.867-.238,13.829-9.156,13.829s-9.156-7.63-9.156-13.782V21.8c0-6.1.238-13.734,9.156-13.734s9.156,6.914,9.156,13.734Zm14.033,20.169L100.734,31.34l-.238-.016-.532,7.706-.192,3.476-7.231-.5.287-3.47L94.7,11.468l.192-3.476,7.231.5-.287,3.47-.512,7.422.237.016,4.986-10.6,7.469.516-8.024,15.842,6.581,18.236Zm28.755-23.665-.079,1.381-6.285-.361.052-.9c.189-3.286-.916-4.829-2.916-4.944a2.522,2.522,0,0,0-2.828,2.656c-.065,1.142.3,2.31,3.459,4.641l3.07,2.278c5.267,3.933,5.245,8.469,5.152,10.088-.361,6.284-4.232,9.644-10.041,9.311-5.284-.3-10.3-3.554-9.872-11.076l.142-2.475,6.57.377-.115,2c-.181,3.142,1.11,4.793,3.2,4.913,1.857.107,2.883-1.124,2.989-2.981.12-2.095-1-3.448-3.785-5.615l-3.019-2.323c-3.431-2.633-4.516-5.371-4.314-8.893.367-6.38,4.7-9.426,9.935-9.126,4.951.285,9.114,3.485,8.679,11.055m24.1,26.716a20.324,20.324,0,1,1,20.324-20.324,20.325,20.325,0,0,1-20.324,20.324" transform="translate(0 0)" fill="#e4002b"/>
      <path id="Path_5" data-name="Path 5" d="M395.342,59.168V58.8h-2.65v.972c0,1.272,0,1.961-.742,1.961s-.742-.689-.742-1.961V55.758c0-1.272,0-1.961.742-1.961s.742.689.742,1.961v.883h2.65v-.318c0-2.527-.088-5.089-3.393-5.089s-3.392,2.827-3.392,5.089v2.862c0,2.28.088,5.107,3.392,5.107s3.393-2.579,3.393-5.124" transform="translate(-244.242 -32.206)" fill="#e4002b"/>
      <path id="Path_6" data-name="Path 6" d="M435.624,57.843l-.088-.006-1.028-6.617L431.07,51,431,52.288l-.643,10.033-.1,1.286,2.416.155.065-1.288.369-5.766.088.006,1.064,7.15,1.746.112,1.968-6.956.088.006-.37,5.766-.1,1.286,2.415.155.065-1.288.643-10.033.1-1.286-3.421-.219Z" transform="translate(-270.457 -32.058)" fill="#e4002b"/>
    </g>
  </g>
</svg>